<?xml version="1.0" encoding="UTF-8"?>
<svg id="Capa_2" data-name="Capa 2" xmlns="http://www.w3.org/2000/svg" xmlns:xlink="http://www.w3.org/1999/xlink" viewBox="0 0 152.99 43.26">
  <defs>
    <style>
      .cls-1 {
        fill: #676769;
      }

      .cls-2 {
        fill: url(#Degradado_sin_nombre_2);
      }

      .cls-3 {
        fill: #232322;
      }

      .cls-4 {
        fill: url(#Degradado_sin_nombre_2-2);
      }
    </style>
    <linearGradient id="Degradado_sin_nombre_2" data-name="Degradado sin nombre 2" x1="91.1" y1="467.75" x2="152.99" y2="467.75" gradientTransform="translate(0 475.67) scale(1 -1)" gradientUnits="userSpaceOnUse">
      <stop offset="0" stop-color="#b086b8"/>
      <stop offset=".16" stop-color="#a8467f"/>
      <stop offset=".33" stop-color="#81448e"/>
      <stop offset=".45" stop-color="#c63626"/>
      <stop offset=".61" stop-color="#d4752c"/>
      <stop offset=".73" stop-color="#e19f36"/>
      <stop offset=".76" stop-color="#93bf8a"/>
      <stop offset=".84" stop-color="#6b9ed6"/>
      <stop offset=".94" stop-color="#75b8bb"/>
      <stop offset="1" stop-color="#81baa5"/>
    </linearGradient>
    <linearGradient id="Degradado_sin_nombre_2-2" data-name="Degradado sin nombre 2" x1=".83" y1="452.47" x2="11.12" y2="434.42" xlink:href="#Degradado_sin_nombre_2"/>
  </defs>
  <g id="Capa_1-2" data-name="Capa 1">
    <path class="cls-1" d="M91.05,29.44v-.42h1.18v.51c0,.53.25.72.65.72s.65-.19.65-.74c0-.62-.25-1.01-1.07-1.68-1.05-.86-1.39-1.46-1.39-2.31,0-1.17.65-1.84,1.87-1.84s1.82.68,1.82,1.86v.31h-1.18v-.38c0-.53-.23-.73-.62-.73s-.62.2-.62.71c0,.54.26.93,1.08,1.6,1.05.86,1.38,1.45,1.38,2.37,0,1.21-.66,1.89-1.89,1.89s-1.84-.68-1.84-1.86h0ZM95.5,23.78h3.41v1.06h-2.16v1.96h1.72v1.06h-1.72v2.28h2.16v1.06h-3.41v-7.41h0ZM99.63,23.78h1.57l1.22,4.44h.02v-4.44h1.12v7.41h-1.29l-1.5-5.41h-.02v5.41h-1.12v-7.41ZM104.28,29.44v-.42h1.18v.51c0,.53.25.72.65.72s.65-.19.65-.74c0-.62-.25-1.01-1.07-1.68-1.05-.86-1.39-1.46-1.39-2.31,0-1.17.65-1.84,1.87-1.84s1.82.68,1.82,1.86v.31h-1.18v-.38c0-.53-.23-.73-.62-.73s-.62.2-.62.71c0,.54.26.93,1.08,1.6,1.05.86,1.38,1.45,1.38,2.37,0,1.21-.66,1.89-1.89,1.89s-1.84-.68-1.84-1.86h0ZM108.64,29.44v-3.9c0-1.18.67-1.86,1.9-1.86s1.9.68,1.9,1.86v3.9c0,1.18-.67,1.86-1.9,1.86s-1.9-.68-1.9-1.86ZM111.19,29.51v-4.05c0-.53-.25-.73-.65-.73s-.65.2-.65.73v4.05c0,.53.25.73.65.73s.65-.2.65-.73ZM113.28,23.78h1.86c1.3,0,1.86.56,1.86,1.7v.46c0,.76-.26,1.25-.82,1.46v.02c.62.18.83.73.83,1.57v1.3c0,.36.01.62.14.9h-1.27c-.07-.19-.11-.31-.11-.91v-1.36c0-.69-.22-.91-.79-.91h-.43v3.18h-1.25v-7.41h0ZM114.99,26.96c.47,0,.75-.19.75-.78v-.57c0-.53-.2-.76-.64-.76h-.57v2.12h.45ZM117.87,23.78h1.25v7.41h-1.25s0-7.41,0-7.41ZM121.02,23.78h1.69l1.3,7.41h-1.25l-.23-1.47v.02h-1.42l-.23,1.45h-1.16l1.3-7.41h0ZM122.39,28.74l-.56-3.66h-.02l-.55,3.66h1.13,0ZM124.62,23.78h1.25v6.36h2.06v1.06h-3.31v-7.41h0ZM128.54,23.78h1.79l.8,5.31h.02l.8-5.31h1.79v7.41h-1.18v-5.61h-.02l-.91,5.61h-1.05l-.91-5.61h-.02v5.61h-1.09v-7.41h0ZM134.66,23.78h3.41v1.06h-2.16v1.96h1.72v1.06h-1.72v2.28h2.16v1.06h-3.41v-7.41h0ZM138.79,23.78h1.57l1.22,4.44h.02v-4.44h1.12v7.41h-1.29l-1.5-5.41h-.02v5.41h-1.12v-7.41ZM144.63,24.84h-1.31v-1.06h3.87v1.06h-1.31v6.36h-1.25v-6.36h0ZM147.8,23.78h3.41v1.06h-2.16v1.96h1.72v1.06h-1.72v2.28h2.16v1.06h-3.41v-7.41h0ZM93.08,34.46h2.15l1.65,8.67h-1.59l-.29-1.72v.02h-1.81l-.29,1.7h-1.48l1.65-8.67h0ZM94.82,40.26l-.71-4.29h-.03l-.7,4.29h1.43,0ZM101.2,35.7h-1.66v-1.24h4.92v1.24h-1.66v7.44h-1.59v-7.44h0ZM105.16,41.08v-6.62h1.59v6.72c0,.62.3.84.81.84s.81-.22.81-.84v-6.72h1.53v6.62c0,1.39-.81,2.18-2.37,2.18s-2.37-.79-2.37-2.18h0ZM114.56,34.46h2.15l1.65,8.67h-1.59l-.29-1.72v.02h-1.81l-.29,1.7h-1.48l1.65-8.67h0ZM116.3,40.26l-.71-4.29h-.03l-.7,4.29h1.43,0ZM119.13,34.46h1.59v7.44h2.61v1.24h-4.2v-8.67h0ZM123.94,41.13v-4.66c0-1.34.81-2.13,2.34-2.13s2.34.79,2.34,2.13v.92h-1.5v-1c0-.57-.32-.81-.79-.81s-.79.24-.79.81v4.84c0,.57.32.79.79.79s.79-.22.79-.79v-1.33h1.5v1.23c0,1.34-.81,2.13-2.34,2.13s-2.34-.79-2.34-2.13h0ZM130.8,34.46h2.15l1.65,8.67h-1.59l-.29-1.72v.02h-1.81l-.29,1.7h-1.48l1.65-8.67h0ZM132.54,40.26l-.71-4.29h-.03l-.7,4.29h1.43,0ZM135.37,34.46h1.99l1.55,5.19h.03v-5.19h1.42v8.67h-1.63l-1.91-6.33h-.03v6.33h-1.42v-8.67ZM141.43,41.13v-4.66c0-1.34.81-2.13,2.34-2.13s2.34.79,2.34,2.13v.92h-1.5v-1c0-.57-.32-.81-.79-.81s-.79.24-.79.81v4.84c0,.57.32.79.79.79s.79-.22.79-.79v-1.33h1.5v1.23c0,1.34-.81,2.13-2.34,2.13s-2.34-.79-2.34-2.13h0ZM147.07,34.46h4.33v1.24h-2.74v2.29h2.18v1.24h-2.18v2.66h2.74v1.24h-4.33v-8.67h0Z"/>
    <path class="cls-2" d="M94.51,12.22c-.23.25-.58.21-.77-.07s-.17-.73.06-.98.58-.21.77.07.17.73-.06.98ZM95.72,12.71c-.2-.29-.54-.32-.77-.07s-.26.68-.06.98.54.32.77.07c.23-.25.26-.68.06-.98ZM97.52,14.19c-.2-.29-.54-.32-.77-.07s-.26.68-.06.98.54.32.77.07c.23-.25.26-.68.06-.98ZM98.71,12.67c-.2-.29-.54-.32-.77-.07s-.26.68-.06.98.54.32.77.07c.23-.25.26-.68.06-.98ZM98.25,12.21c.3.03.56-.26.59-.64.02-.38-.2-.71-.5-.74s-.56.26-.59.64.2.71.5.74ZM103.85,14.21c-.2-.29-.54-.32-.77-.07s-.26.68-.06.98.54.32.77.07.26-.68.06-.98ZM104.54,12.26c.3.03.56-.26.59-.64.02-.38-.2-.71-.5-.74s-.56.26-.59.64c-.02.38.2.71.5.74ZM106.42,13.91c.3.03.56-.26.59-.64s-.2-.71-.5-.74-.56.26-.59.64c-.02.38.2.71.5.74ZM107.67,12.29c.3.03.56-.26.59-.64s-.2-.71-.5-.74c-.3-.03-.56.26-.59.64-.02.38.2.71.5.74ZM103.36,13.75c.3.03.56-.26.59-.64s-.2-.71-.5-.74-.56.26-.59.64c-.02.38.2.71.5.74ZM109.95,14.21c-.2-.29-.54-.32-.77-.07s-.26.68-.06.98.54.32.77.07.26-.68.06-.98ZM109.45,13.75c.3.03.56-.26.59-.64.02-.38-.2-.71-.5-.74s-.56.26-.59.64c-.02.38.2.71.5.74ZM113.77,13.75c.3.03.56-.26.59-.64s-.2-.71-.5-.74-.56.26-.59.64c-.02.38.2.71.5.74ZM113.77,12.21c.3.03.56-.26.59-.64s-.2-.71-.5-.74-.56.26-.59.64c-.02.38.2.71.5.74ZM115.75,12.21c.3.03.56-.26.59-.64.02-.38-.2-.71-.5-.74s-.56.26-.59.64.2.71.5.74ZM116.87,13.77c.29.12.6-.07.7-.43.1-.36-.05-.75-.34-.88s-.6.07-.7.43c-.1.36.05.75.34.88ZM118.84,15.23c.29.12.6-.07.7-.43.1-.36-.05-.75-.34-.88s-.6.07-.7.43c-.1.36.05.75.34.88ZM118.61,12.23c.29.12.6-.07.7-.43.1-.36-.05-.75-.34-.88s-.6.07-.7.43.05.75.34.88ZM119.98,12.23c.29.12.6-.07.7-.43.1-.36-.05-.75-.34-.88s-.6.07-.7.43c-.1.36.05.75.34.88ZM121.81,12.23c.29.12.6-.07.7-.43.1-.36-.05-.75-.34-.88s-.6.07-.7.43c-.1.36.05.75.34.88ZM128.18,12.23c.29.12.6-.07.7-.43.1-.36-.05-.75-.34-.88s-.6.07-.7.43c-.1.36.05.75.34.88ZM128.18,13.92c.29.12.6-.07.7-.43.1-.36-.05-.75-.34-.88s-.6.07-.7.43c-.1.36.05.75.34.88ZM131.08,12.23c.29.12.6-.07.7-.43s-.05-.75-.34-.88-.6.07-.7.43c-.1.36.05.75.34.88ZM131.08,13.92c.29.12.6-.07.7-.43s-.05-.75-.34-.88-.6.07-.7.43c-.1.36.05.75.34.88ZM132.46,13.92c.29.12.6-.07.7-.43.1-.36-.05-.75-.34-.88s-.6.07-.7.43.05.75.34.88ZM134.31,12.23c.29.12.6-.07.7-.43.1-.36-.05-.75-.34-.88s-.6.07-.7.43c-.1.36.05.75.34.88ZM137.49,13.66c.29.12.6-.07.7-.43.1-.36-.05-.75-.34-.88-.29-.12-.6.07-.7.43-.1.36.05.75.34.88ZM138.73,12.3c.29.12.6-.07.7-.43s-.05-.75-.34-.88-.6.07-.7.43c-.1.36.05.75.34.88ZM140.42,12.1c.29.12.6-.07.7-.43.1-.36-.05-.75-.34-.88s-.6.07-.7.43c-.1.36.05.75.34.88ZM143.5,12.31c.29.12.6-.07.7-.43.1-.36-.05-.75-.34-.88s-.6.07-.7.43c-.1.36.05.75.34.88ZM146.63,12.24c.29.12.6-.07.7-.43s-.05-.75-.34-.88-.6.07-.7.43c-.1.36.05.75.34.88ZM147.81,13.67c.29.12.6-.07.7-.43.1-.36-.05-.75-.34-.88s-.6.07-.7.43c-.1.36.05.75.34.88ZM149.76,15.42c.29.12.6-.07.7-.43s-.05-.75-.34-.88-.6.07-.7.43.05.75.34.88ZM143.5,13.93c.29.12.6-.07.7-.43s-.05-.75-.34-.88c-.29-.12-.6.07-.7.43-.1.36.05.75.34.88ZM143.5,15.48c.29.12.6-.07.7-.43.1-.36-.05-.75-.34-.88s-.6.07-.7.43c-.1.36.05.75.34.88ZM140.42,13.92c.29.12.6-.07.7-.43.1-.36-.05-.75-.34-.88s-.6.07-.7.43c-.1.36.05.75.34.88ZM140.42,15.8c.29.12.6-.07.7-.43.1-.36-.05-.75-.34-.88s-.6.07-.7.43c-.1.36.05.75.34.88ZM131.08,15.41c.29.12.6-.07.7-.43.1-.36-.05-.75-.34-.88s-.6.07-.7.43c-.1.36.05.75.34.88ZM110.74,12.26c.3.03.56-.26.59-.64s-.2-.71-.5-.74-.56.26-.59.64c-.02.38.2.71.5.74ZM112.45,15.41c.3.03.56-.26.59-.64.02-.38-.2-.71-.5-.74s-.56.26-.59.64.2.71.5.74ZM112.45,13.7c.3.03.56-.26.59-.64.02-.38-.2-.71-.5-.74s-.56.26-.59.64.2.71.5.74ZM97.05,12.21c.3.03.56-.26.59-.64.02-.38-.2-.71-.5-.74s-.56.26-.59.64c-.02.38.2.71.5.74ZM91.1,3.89c0,.38.24.69.55.69s.55-.31.55-.69-.24-.69-.55-.69-.55.31-.55.69ZM91.1.81c0,.38.24.69.55.69s.55-.31.55-.69-.24-.69-.54-.69-.55.31-.55.69ZM93.07.81c0,.38.24.69.55.69s.55-.31.55-.69-.24-.69-.54-.69-.55.31-.55.69h0ZM96.18.81c0,.38.24.69.55.69s.55-.31.55-.69-.24-.69-.55-.69-.55.31-.55.69ZM96.18,2.5c0,.38.24.69.55.69s.55-.31.55-.69-.24-.69-.55-.69-.55.31-.55.69ZM99.3.81c0,.38.24.69.55.69s.55-.31.55-.69-.24-.69-.55-.69-.55.31-.55.69ZM99.3,2.5c0,.38.24.69.55.69s.55-.31.55-.69-.24-.69-.55-.69-.55.31-.55.69ZM100.61,2.5c0,.38.24.69.55.69s.55-.31.55-.69-.24-.69-.55-.69-.55.31-.55.69ZM102.32,2.45c-.02.38.2.71.5.74s.56-.26.59-.64-.2-.71-.5-.74-.56.26-.59.64ZM103.54.65c-.02.38.2.71.5.74s.56-.26.59-.64c.02-.38-.2-.71-.5-.74s-.56.26-.59.64ZM105.51.65c-.02.38.2.71.5.74s.56-.26.59-.64c.02-.38-.2-.71-.5-.74s-.56.26-.59.64ZM106.63,2.14c-.02.38.2.71.5.74s.56-.26.59-.64c.02-.38-.2-.71-.5-.74-.3-.03-.56.26-.59.64ZM108.62,3.83c-.02.38.2.71.5.74.3.03.56-.26.59-.64.02-.38-.2-.71-.5-.74s-.56.26-.59.64ZM109.83,2.34c-.02.38.2.71.5.74s.56-.26.59-.64c.02-.38-.2-.71-.5-.74s-.56.26-.59.64ZM108.57.74c-.02.38.2.71.5.74.3.03.56-.26.59-.64s-.2-.71-.5-.74c-.3-.03-.56.26-.59.64ZM109.92.74c-.02.38.2.71.5.74.3.03.56-.26.59-.64s-.2-.71-.5-.74c-.3-.03-.56.26-.59.64ZM111.56.74c-.02.38.2.71.5.74.3.03.56-.26.59-.64.02-.38-.2-.71-.5-.74-.3-.03-.56.26-.59.64ZM112.92.74c-.02.38.2.71.5.74.3.03.56-.26.59-.64s-.2-.71-.5-.74c-.3-.03-.56.26-.59.64ZM112.92,2.25c-.02.38.2.71.5.74s.56-.26.59-.64-.2-.71-.5-.74-.56.26-.59.64ZM114.74,3.72c-.02.38.2.71.5.74s.56-.26.59-.64c.02-.38-.2-.71-.5-.74s-.56.26-.59.64ZM116.03,2.23c-.02.38.2.71.5.74.3.03.56-.26.59-.64.02-.38-.2-.71-.5-.74-.3-.03-.56.26-.59.64ZM114.85.72c-.02.38.2.71.5.74s.56-.26.59-.64-.2-.71-.5-.74-.56.26-.59.64ZM122.07.67c-.02.38.2.71.5.74.3.03.56-.26.59-.64.02-.38-.2-.71-.5-.74-.3-.03-.56.26-.59.64ZM122.07,3.98c-.02.38.2.71.5.74s.56-.26.59-.64-.2-.71-.5-.74-.56.26-.59.64ZM124.16.64c-.02.38.2.71.5.74.3.03.56-.26.59-.64.02-.38-.2-.71-.5-.74s-.56.26-.59.64ZM130.25.88c-.02.38.2.71.5.74.3.03.56-.26.59-.64s-.2-.71-.5-.74-.56.26-.59.64ZM131.36,2.39c-.02.38.2.71.5.74s.56-.26.59-.64c.02-.38-.2-.71-.5-.74s-.56.26-.59.64ZM133.44,3.77c-.02.38.2.71.5.74s.56-.26.59-.64c.02-.38-.2-.71-.5-.74s-.56.26-.59.64ZM134.46,2.37c-.02.38.2.71.5.74.3.03.56-.26.59-.64s-.2-.71-.5-.74c-.3-.03-.56.26-.59.64ZM135.55.88c.02-.38-.2-.71-.5-.74s-.56.26-.59.64c-.02.38.2.71.5.74s.56-.26.59-.64ZM134.37.88c.02-.38-.2-.71-.5-.74s-.56.26-.59.64c-.02.38.2.71.5.74s.56-.26.59-.64ZM138.79.88c.02-.38-.2-.71-.5-.74s-.56.26-.59.64c-.02.38.2.71.5.74s.56-.26.59-.64ZM141.87.88c.02-.38-.2-.71-.5-.74s-.56.26-.59.64c-.02.38.2.71.5.74s.56-.26.59-.64ZM143.73.88c.02-.38-.2-.71-.5-.74s-.56.26-.59.64c-.02.38.2.71.5.74s.56-.26.59-.64ZM144.9.37c-.2-.29-.54-.32-.77-.07s-.26.68-.06.98.54.32.77.07.26-.68.06-.98ZM146.95.88c.02-.38-.2-.71-.5-.74s-.56.26-.59.64c-.02.38.2.71.5.74s.56-.26.59-.64ZM152.86,1.86c-.2-.29-.54-.32-.77-.07s-.26.68-.06.98.54.32.77.07.26-.68.06-.98ZM149.84,2.02c-.2-.29-.54-.32-.77-.07s-.26.68-.06.98.54.32.77.07.26-.68.06-.98ZM147.96,1.84c-.2-.29-.54-.32-.77-.07s-.26.68-.06.98.54.32.77.07.26-.68.06-.98ZM146.83,3.31c-.2-.29-.54-.32-.77-.07s-.26.68-.06.98.54.32.77.07.26-.68.06-.98ZM144.8,1.97c-.2-.29-.54-.32-.77-.07s-.26.68-.06.98.54.32.77.07.26-.68.06-.98ZM149.84,3.57c-.2-.29-.54-.32-.77-.07s-.26.68-.06.98.54.32.77.07.26-.68.06-.98ZM150.97.59c-.2-.29-.54-.32-.77-.07-.23.25-.26.68-.06.98s.54.32.77.07.26-.68.06-.98ZM138.79,2.43c.02-.38-.2-.71-.5-.74-.3-.03-.56.26-.59.64-.02.38.2.71.5.74.3.03.56-.26.59-.64ZM140.53,2.43c.02-.38-.2-.71-.5-.74-.3-.03-.56.26-.59.64-.02.38.2.71.5.74.3.03.56-.26.59-.64ZM137.52,2.43c.02-.38-.2-.71-.5-.74-.3-.03-.56.26-.59.64-.02.38.2.71.5.74.3.03.56-.26.59-.64ZM137.52,4.03c.02-.38-.2-.71-.5-.74s-.56.26-.59.64.2.71.5.74c.3.03.56-.26.59-.64ZM125.98,2.88c.29-.12.44-.51.35-.87s-.41-.56-.69-.44-.44.51-.35.87c.1.36.41.56.69.44ZM120.83,3.98c-.02.38.2.71.5.74.3.03.56-.26.59-.64.02-.38-.2-.71-.5-.74s-.56.26-.59.64ZM122.07,2.29c-.02.38.2.71.5.74s.56-.26.59-.64-.2-.71-.5-.74c-.3-.03-.56.26-.59.64ZM99.3,4.1c0,.38.24.69.55.69s.55-.31.55-.69-.24-.69-.55-.69-.55.31-.55.69Z"/>
    <g>
      <g>
        <path class="cls-3" d="M3.29.28h4.3l3.29,19.5h-3.17l-.58-3.87v.06h-3.61l-.58,3.82H0L3.29.28h0ZM6.75,13.31l-1.41-9.64h-.06l-1.38,9.64h2.86Z"/>
        <path class="cls-3" d="M12.4.28h4.78c3.29,0,4.7,1.48,4.7,4.48v.78c0,2.01-.63,3.26-2.05,3.82v.06c1.7.56,2.36,2,2.36,4.07v1.67c0,3.01-1.64,4.62-4.81,4.62h-4.99V.28h0ZM16.81,8.22c1.18,0,1.9-.5,1.9-2.06v-1.09c0-1.39-.49-2-1.61-2h-1.53v5.15h1.24ZM17.39,16.99c1.07,0,1.64-.47,1.64-1.92v-1.7c0-1.81-.61-2.37-2.05-2.37h-1.41v5.99s1.82,0,1.82,0Z"/>
        <path class="cls-3" d="M24.05.28h4.7c3.29,0,4.7,1.48,4.7,4.48v1.2c0,2-.66,3.29-2.08,3.84v.06c1.59.47,2.11,1.92,2.11,4.12v3.43c0,.95.03,1.64.35,2.37h-3.23c-.17-.5-.29-.81-.29-2.4v-3.57c0-1.81-.55-2.4-1.99-2.4h-1.09v8.36h-3.17V.27h0ZM28.37,8.63c1.18,0,1.9-.5,1.9-2.06v-1.5c0-1.39-.49-2-1.61-2h-1.44v5.57h1.15Z"/>
        <path class="cls-3" d="M35.66.28h3.17v19.5h-3.17V.28Z"/>
        <path class="cls-3" d="M41.2.28h8.65v2.78h-5.48v5.15h4.35v2.78h-4.35v5.99h5.48v2.78h-8.65V.27h0Z"/>
        <path class="cls-3" d="M51.67.28h3.98l3.08,11.67h.06V.28h2.83v19.5h-3.26l-3.81-14.23h-.06v14.23h-2.83V.28h0Z"/>
        <path class="cls-3" d="M63.98.28h4.84c3.17,0,4.73,1.7,4.73,4.82v9.86c0,3.12-1.56,4.82-4.73,4.82h-4.84V.27h0ZM68.77,16.99c1.01,0,1.61-.5,1.61-1.89V4.96c0-1.39-.61-1.89-1.61-1.89h-1.61v13.93h1.61Z"/>
        <path class="cls-3" d="M75.46,15.15V4.9c0-3.12,1.7-4.9,4.81-4.9s4.81,1.78,4.81,4.9v10.25c0,3.12-1.7,4.9-4.81,4.9s-4.81-1.78-4.81-4.9h0ZM81.91,15.35V4.71c0-1.39-.63-1.92-1.64-1.92s-1.64.53-1.64,1.92v10.64c0,1.39.64,1.92,1.64,1.92s1.64-.53,1.64-1.92Z"/>
      </g>
      <g>
        <path class="cls-3" d="M14.05,23.16h8.65v2.78h-5.48v5.15h4.35v2.78h-4.35v5.99h5.48v2.78h-8.65v-19.5h0Z"/>
        <path class="cls-3" d="M24.52,23.16h3.98l3.08,11.67h.06v-11.67h2.83v19.5h-3.26l-3.81-14.23h-.06v14.23h-2.83v-19.5h0Z"/>
        <path class="cls-3" d="M39.31,25.94h-3.32v-2.78h9.8v2.78h-3.32v16.71h-3.17v-16.71h0Z"/>
        <path class="cls-3" d="M47.32,23.16h3.17v19.5h-3.17v-19.5Z"/>
        <path class="cls-3" d="M52.86,23.16h4.84c3.17,0,4.73,1.7,4.73,4.82v9.86c0,3.12-1.56,4.82-4.73,4.82h-4.84v-19.5h0ZM57.64,39.87c1.01,0,1.61-.5,1.61-1.89v-10.14c0-1.39-.61-1.89-1.61-1.89h-1.61v13.93h1.61Z"/>
        <path class="cls-3" d="M64.33,38.03v-10.25c0-3.12,1.7-4.9,4.81-4.9s4.81,1.78,4.81,4.9v10.25c0,3.12-1.7,4.9-4.81,4.9s-4.81-1.78-4.81-4.9ZM70.79,38.23v-10.64c0-1.39-.63-1.92-1.64-1.92s-1.64.53-1.64,1.92v10.64c0,1.39.64,1.92,1.64,1.92s1.64-.53,1.64-1.92Z"/>
        <path class="cls-3" d="M75.55,38.03v-1.11h3v1.34c0,1.39.64,1.89,1.64,1.89s1.64-.5,1.64-1.95c0-1.61-.64-2.65-2.71-4.4-2.65-2.26-3.52-3.84-3.52-6.07,0-3.06,1.64-4.85,4.73-4.85s4.61,1.78,4.61,4.9v.81h-3v-1c0-1.39-.58-1.92-1.59-1.92s-1.59.53-1.59,1.87c0,1.42.66,2.45,2.74,4.2,2.65,2.26,3.49,3.82,3.49,6.24,0,3.18-1.67,4.96-4.78,4.96s-4.67-1.78-4.67-4.9h0Z"/>
        <path class="cls-4" d="M.08,38.1v-1.53h3.65v1.75c0,1.39.77,1.89,2,1.89s2-.5,2-1.89v-4.37c0-1.39-.77-1.92-2-1.92s-2,.53-2,1.92v.17H.08l.7-10.89h10.18v2.78h-6.74l-.32,4.65h.07c.7-.92,1.79-1.42,3.33-1.42,2.84,0,4.28,1.59,4.28,4.46v4.4c0,3.12-1.96,4.9-5.76,4.9S.08,41.21.08,38.09h0Z"/>
      </g>
    </g>
  </g>
</svg>