<?xml version="1.0" encoding="UTF-8"?>
<svg id="Capa_2" data-name="Capa 2" xmlns="http://www.w3.org/2000/svg" xmlns:xlink="http://www.w3.org/1999/xlink" viewBox="0 0 263.71 223.03">
  <defs>
    <style>
      .cls-1 {
        fill: url(#Degradado_sin_nombre_30-2);
      }

      .cls-2 {
        fill: #222221;
      }

      .cls-3 {
        fill: url(#Degradado_sin_nombre_30);
      }

      .cls-4 {
        fill: #666668;
      }
    </style>
    <linearGradient id="Degradado_sin_nombre_30" data-name="Degradado sin nombre 30" x1=".11" y1="26.7" x2="263.71" y2="26.7" gradientUnits="userSpaceOnUse">
      <stop offset="0" stop-color="#b086b7"/>
      <stop offset=".16" stop-color="#a8457e"/>
      <stop offset=".33" stop-color="#80438e"/>
      <stop offset=".45" stop-color="#c63323"/>
      <stop offset=".61" stop-color="#d4742b"/>
      <stop offset=".73" stop-color="#e19f34"/>
      <stop offset=".76" stop-color="#93bf89"/>
      <stop offset=".84" stop-color="#699ed6"/>
      <stop offset=".94" stop-color="#74b8bb"/>
      <stop offset="1" stop-color="#81baa4"/>
    </linearGradient>
    <linearGradient id="Degradado_sin_nombre_30-2" data-name="Degradado sin nombre 30" x1="5.33" y1="134.26" x2="36.57" y2="189.03" xlink:href="#Degradado_sin_nombre_30"/>
  </defs>
  <g id="Capa_1-2" data-name="Capa 1">
    <g>
      <g>
        <path class="cls-2" d="M12.79,64.69h13.04l9.97,59.17h-9.63l-1.75-11.75v.17h-10.94l-1.75,11.58H2.81l9.97-59.17ZM23.29,104.25l-4.29-29.25h-.18l-4.2,29.25h8.66Z"/>
        <path class="cls-2" d="M40.43,64.69h14.52c9.97,0,14.26,4.48,14.26,13.61v2.37c0,6.09-1.92,9.89-6.21,11.58v.17c5.16,1.69,7.17,6.08,7.17,12.34v5.07c0,9.13-4.99,14.03-14.61,14.03h-15.14v-59.17ZM53.82,88.78c3.59,0,5.77-1.52,5.77-6.25v-3.3c0-4.23-1.49-6.08-4.9-6.08h-4.64v15.64h3.76ZM55.57,115.41c3.24,0,4.99-1.44,4.99-5.83v-5.16c0-5.49-1.84-7.18-6.21-7.18h-4.29v18.17h5.51Z"/>
        <path class="cls-2" d="M75.78,64.69h14.26c9.97,0,14.26,4.48,14.26,13.61v3.63c0,6.08-2.01,9.97-6.3,11.66v.17c4.81,1.44,6.39,5.83,6.39,12.51v10.4c0,2.87.09,4.99,1.05,7.18h-9.8c-.52-1.52-.87-2.45-.87-7.27v-10.82c0-5.49-1.66-7.27-6.04-7.27h-3.32v25.36h-9.63v-59.17ZM88.91,90.05c3.59,0,5.77-1.52,5.77-6.25v-4.56c0-4.23-1.49-6.08-4.9-6.08h-4.37v16.9h3.5Z"/>
        <path class="cls-2" d="M111.04,64.69h9.63v59.17h-9.63v-59.17Z"/>
        <path class="cls-2" d="M127.84,64.69h26.25v8.45h-16.62v15.64h13.21v8.45h-13.21v18.17h16.62v8.45h-26.25v-59.17Z"/>
        <path class="cls-2" d="M159.6,64.69h12.08l9.36,35.42h.18v-35.42h8.58v59.17h-9.89l-11.55-43.19h-.17v43.19h-8.58v-59.17Z"/>
        <path class="cls-2" d="M196.96,64.69h14.7c9.63,0,14.35,5.16,14.35,14.62v29.92c0,9.47-4.72,14.62-14.35,14.62h-14.7v-59.17ZM211.49,115.41c3.06,0,4.9-1.52,4.9-5.75v-30.77c0-4.23-1.84-5.75-4.9-5.75h-4.9v42.26h4.9Z"/>
        <path class="cls-2" d="M231.79,109.83v-31.1c0-9.47,5.16-14.88,14.61-14.88s14.61,5.41,14.61,14.88v31.1c0,9.47-5.16,14.88-14.61,14.88s-14.61-5.41-14.61-14.88ZM251.39,110.42v-32.29c0-4.23-1.92-5.83-4.99-5.83s-4.99,1.61-4.99,5.83v32.29c0,4.23,1.93,5.83,4.99,5.83s4.99-1.61,4.99-5.83Z"/>
      </g>
      <path class="cls-4" d="M0,218.25v-1.09h2.79v1.3c0,1.36.59,1.85,1.53,1.85s1.53-.49,1.53-1.9c0-1.58-.59-2.58-2.52-4.3-2.47-2.2-3.27-3.75-3.27-5.92,0-2.99,1.53-4.73,4.4-4.73s4.29,1.74,4.29,4.78v.79h-2.79v-.98c0-1.36-.54-1.87-1.47-1.87s-1.47.52-1.47,1.82c0,1.39.62,2.39,2.55,4.1,2.47,2.2,3.24,3.72,3.24,6.09,0,3.1-1.55,4.84-4.45,4.84s-4.34-1.74-4.34-4.78ZM10.48,203.74h8.04v2.72h-5.09v5.03h4.05v2.72h-4.05v5.84h5.09v2.72h-8.04v-19.02ZM20.21,203.74h3.7l2.87,11.39h.05v-11.39h2.63v19.02h-3.03l-3.54-13.89h-.05v13.89h-2.63v-19.02ZM31.15,218.25v-1.09h2.79v1.3c0,1.36.59,1.85,1.53,1.85s1.53-.49,1.53-1.9c0-1.58-.59-2.58-2.52-4.3-2.47-2.2-3.27-3.75-3.27-5.92,0-2.99,1.53-4.73,4.4-4.73s4.29,1.74,4.29,4.78v.79h-2.79v-.98c0-1.36-.54-1.87-1.47-1.87s-1.47.52-1.47,1.82c0,1.39.62,2.39,2.55,4.1,2.47,2.2,3.24,3.72,3.24,6.09,0,3.1-1.55,4.84-4.45,4.84s-4.34-1.74-4.34-4.78ZM41.41,218.25v-10c0-3.04,1.58-4.78,4.48-4.78s4.48,1.74,4.48,4.78v10c0,3.04-1.58,4.78-4.48,4.78s-4.48-1.74-4.48-4.78ZM47.42,218.44v-10.38c0-1.36-.59-1.87-1.53-1.87s-1.53.52-1.53,1.87v10.38c0,1.36.59,1.87,1.53,1.87s1.53-.52,1.53-1.87ZM52.35,203.74h4.37c3.06,0,4.37,1.44,4.37,4.37v1.17c0,1.96-.62,3.21-1.93,3.75v.05c1.47.46,1.96,1.87,1.96,4.02v3.34c0,.93.03,1.6.32,2.31h-3c-.16-.49-.27-.79-.27-2.34v-3.48c0-1.77-.51-2.34-1.85-2.34h-1.02v8.15h-2.95v-19.02ZM56.37,211.89c1.1,0,1.77-.49,1.77-2.01v-1.47c0-1.36-.46-1.96-1.5-1.96h-1.34v5.44h1.07ZM63.15,203.74h2.95v19.02h-2.95v-19.02ZM70.57,203.74h3.99l3.06,19.02h-2.95l-.54-3.78v.05h-3.35l-.54,3.72h-2.74l3.06-19.02ZM73.79,216.45l-1.31-9.4h-.05l-1.29,9.4h2.66ZM79.04,203.74h2.95v16.31h4.85v2.72h-7.8v-19.02ZM88.26,203.74h4.21l1.88,13.61h.05l1.88-13.61h4.21v19.02h-2.79v-14.4h-.05l-2.14,14.4h-2.47l-2.14-14.4h-.05v14.4h-2.57v-19.02ZM102.68,203.74h8.04v2.72h-5.09v5.03h4.05v2.72h-4.05v5.84h5.09v2.72h-8.04v-19.02ZM112.41,203.74h3.7l2.87,11.39h.05v-11.39h2.63v19.02h-3.03l-3.54-13.89h-.05v13.89h-2.63v-19.02ZM126.16,206.45h-3.08v-2.72h9.12v2.72h-3.08v16.31h-2.95v-16.31ZM133.61,203.74h8.04v2.72h-5.09v5.03h4.05v2.72h-4.05v5.84h5.09v2.72h-8.04v-19.02ZM149.91,203.74h3.99l3.06,19.02h-2.95l-.54-3.78v.05h-3.35l-.54,3.72h-2.74l3.06-19.02ZM153.13,216.45l-1.31-9.4h-.05l-1.29,9.4h2.66ZM164.97,206.45h-3.08v-2.72h9.12v2.72h-3.08v16.31h-2.95v-16.31ZM172.31,218.25v-14.51h2.95v14.73c0,1.36.56,1.85,1.5,1.85s1.5-.49,1.5-1.85v-14.73h2.84v14.51c0,3.04-1.5,4.78-4.4,4.78s-4.4-1.74-4.4-4.78ZM189.76,203.74h3.99l3.06,19.02h-2.95l-.54-3.78v.05h-3.35l-.54,3.72h-2.74l3.06-19.02ZM192.98,216.45l-1.31-9.4h-.05l-1.29,9.4h2.66ZM198.23,203.74h2.95v16.31h4.85v2.72h-7.8v-19.02ZM207.16,218.36v-10.22c0-2.93,1.5-4.67,4.34-4.67s4.34,1.74,4.34,4.67v2.01h-2.79v-2.2c0-1.25-.59-1.77-1.47-1.77s-1.47.52-1.47,1.77v10.62c0,1.25.59,1.74,1.47,1.74s1.47-.49,1.47-1.74v-2.91h2.79v2.69c0,2.93-1.5,4.67-4.34,4.67s-4.34-1.74-4.34-4.67ZM219.89,203.74h3.99l3.06,19.02h-2.95l-.54-3.78v.05h-3.35l-.54,3.72h-2.74l3.06-19.02ZM223.11,216.45l-1.31-9.4h-.05l-1.29,9.4h2.66ZM228.36,203.74h3.7l2.87,11.39h.05v-11.39h2.63v19.02h-3.03l-3.54-13.89h-.05v13.89h-2.63v-19.02ZM239.62,218.36v-10.22c0-2.93,1.5-4.67,4.34-4.67s4.34,1.74,4.34,4.67v2.01h-2.79v-2.2c0-1.25-.59-1.77-1.47-1.77s-1.47.52-1.47,1.77v10.62c0,1.25.59,1.74,1.47,1.74s1.47-.49,1.47-1.74v-2.91h2.79v2.69c0,2.93-1.5,4.67-4.34,4.67s-4.34-1.74-4.34-4.67ZM250.07,203.74h8.04v2.72h-5.09v5.03h4.05v2.72h-4.05v5.84h5.09v2.72h-8.04v-19.02Z"/>
      <path class="cls-3" d="M14.62,41.21c-.98.84-2.45.72-3.29-.25s-.72-2.45.25-3.29,2.45-.72,3.29.25.72,2.45-.25,3.29ZM19.79,42.84c-.84-.98-2.31-1.09-3.29-.25s-1.09,2.31-.25,3.29c.84.98,2.31,1.09,3.29.25.98-.84,1.09-2.31.25-3.29ZM27.48,47.83c-.84-.98-2.31-1.09-3.29-.25s-1.09,2.31-.25,3.29c.84.98,2.31,1.09,3.29.25.98-.84,1.09-2.31.25-3.29ZM32.51,42.73c-.84-.98-2.31-1.09-3.29-.25s-1.09,2.31-.25,3.29,2.31,1.09,3.29.25,1.09-2.31.25-3.29ZM30.56,41.18c1.28.1,2.4-.86,2.5-2.15.1-1.28-.86-2.4-2.15-2.5s-2.4.86-2.5,2.15.86,2.4,2.15,2.5ZM54.44,47.91c-.84-.98-2.31-1.09-3.29-.25-.98.84-1.09,2.31-.25,3.29.84.98,2.31,1.09,3.29.25s1.09-2.31.25-3.29ZM57.37,41.33c1.28.1,2.4-.86,2.5-2.15.1-1.28-.86-2.4-2.15-2.5s-2.4.86-2.5,2.15c-.1,1.28.86,2.4,2.15,2.5ZM65.35,46.9c1.28.1,2.4-.86,2.5-2.15s-.86-2.4-2.15-2.5-2.4.86-2.5,2.15c-.1,1.28.86,2.4,2.15,2.5ZM70.67,41.44c1.28.1,2.4-.86,2.5-2.15s-.86-2.4-2.15-2.5c-1.28-.1-2.4.86-2.5,2.15-.1,1.28.86,2.4,2.15,2.5ZM52.34,46.36c1.28.1,2.4-.86,2.5-2.15s-.86-2.4-2.15-2.5-2.4.86-2.5,2.15c-.1,1.28.86,2.4,2.15,2.5ZM80.38,47.91c-.84-.98-2.31-1.09-3.29-.25-.98.84-1.09,2.31-.25,3.29.84.98,2.31,1.09,3.29.25s1.09-2.31.25-3.29ZM78.28,46.36c1.28.1,2.4-.86,2.5-2.15.1-1.28-.86-2.4-2.15-2.5s-2.4.86-2.5,2.15c-.1,1.28.86,2.4,2.15,2.5ZM96.65,46.36c1.28.1,2.4-.86,2.5-2.15s-.86-2.4-2.15-2.5-2.4.86-2.5,2.15c-.1,1.28.86,2.4,2.15,2.5ZM96.65,41.18c1.28.1,2.4-.86,2.5-2.15s-.86-2.4-2.15-2.5-2.4.86-2.5,2.15c-.1,1.28.86,2.4,2.15,2.5ZM105.1,41.18c1.28.1,2.4-.86,2.5-2.15.1-1.28-.86-2.4-2.15-2.5s-2.4.86-2.5,2.15.86,2.4,2.15,2.5ZM109.87,46.42c1.22.42,2.54-.23,2.97-1.44.42-1.22-.23-2.54-1.44-2.97s-2.54.23-2.97,1.44c-.42,1.22.23,2.54,1.44,2.97ZM118.25,51.37c1.22.42,2.54-.23,2.97-1.44.42-1.22-.23-2.54-1.44-2.97s-2.54.23-2.97,1.44c-.42,1.22.23,2.54,1.44,2.97ZM117.3,41.25c1.22.42,2.54-.23,2.97-1.44.42-1.22-.23-2.54-1.44-2.97s-2.54.23-2.97,1.44.23,2.54,1.44,2.97ZM123.13,41.25c1.22.42,2.54-.23,2.97-1.44.42-1.22-.23-2.54-1.44-2.97s-2.54.23-2.97,1.44c-.42,1.22.23,2.54,1.44,2.97ZM130.93,41.25c1.22.42,2.54-.23,2.97-1.44.42-1.22-.23-2.54-1.44-2.97s-2.54.23-2.97,1.44c-.42,1.22.23,2.54,1.44,2.97ZM158.04,41.25c1.22.42,2.54-.23,2.97-1.44.42-1.22-.23-2.54-1.44-2.97s-2.54.23-2.97,1.44c-.42,1.22.23,2.54,1.44,2.97ZM158.04,46.93c1.22.42,2.54-.23,2.97-1.44.42-1.22-.23-2.54-1.44-2.97s-2.54.23-2.97,1.44c-.42,1.22.23,2.54,1.44,2.97ZM170.39,41.25c1.22.42,2.54-.23,2.97-1.44s-.23-2.54-1.44-2.97-2.54.23-2.97,1.44c-.42,1.22.23,2.54,1.44,2.97ZM170.39,46.93c1.22.42,2.54-.23,2.97-1.44s-.23-2.54-1.44-2.97-2.54.23-2.97,1.44c-.42,1.22.23,2.54,1.44,2.97ZM176.29,46.93c1.22.42,2.54-.23,2.97-1.44.42-1.22-.23-2.54-1.44-2.97s-2.54.23-2.97,1.44.23,2.54,1.44,2.97ZM184.16,41.25c1.22.42,2.54-.23,2.97-1.44.42-1.22-.23-2.54-1.44-2.97s-2.54.23-2.97,1.44c-.42,1.22.23,2.54,1.44,2.97ZM197.71,46.05c1.22.42,2.54-.23,2.97-1.44.42-1.22-.23-2.54-1.44-2.97-1.22-.42-2.54.23-2.97,1.44-.42,1.22.23,2.54,1.44,2.97ZM202.96,41.46c1.22.42,2.54-.23,2.97-1.44s-.23-2.54-1.44-2.97-2.54.23-2.97,1.44c-.42,1.22.23,2.54,1.44,2.97ZM210.17,40.81c1.22.42,2.54-.23,2.97-1.44.42-1.22-.23-2.54-1.44-2.97s-2.54.23-2.97,1.44c-.42,1.22.23,2.54,1.44,2.97ZM223.29,41.5c1.22.42,2.54-.23,2.97-1.44.42-1.22-.23-2.54-1.44-2.97s-2.54.23-2.97,1.44c-.42,1.22.23,2.54,1.44,2.97ZM236.62,41.28c1.22.42,2.54-.23,2.97-1.44s-.23-2.54-1.44-2.97-2.54.23-2.97,1.44c-.42,1.22.23,2.54,1.44,2.97ZM241.65,46.09c1.22.42,2.54-.23,2.97-1.44.42-1.22-.23-2.54-1.44-2.97s-2.54.23-2.97,1.44c-.42,1.22.23,2.54,1.44,2.97ZM249.96,51.99c1.22.42,2.54-.23,2.97-1.44s-.23-2.54-1.44-2.97-2.54.23-2.97,1.44.23,2.54,1.44,2.97ZM223.29,46.97c1.22.42,2.54-.23,2.97-1.44s-.23-2.54-1.44-2.97c-1.22-.42-2.54.23-2.97,1.44-.42,1.22.23,2.54,1.44,2.97ZM223.29,52.21c1.22.42,2.54-.23,2.97-1.44.42-1.22-.23-2.54-1.44-2.97s-2.54.23-2.97,1.44c-.42,1.22.23,2.54,1.44,2.97ZM210.17,46.93c1.22.42,2.54-.23,2.97-1.44.42-1.22-.23-2.54-1.44-2.97s-2.54.23-2.97,1.44c-.42,1.22.23,2.54,1.44,2.97ZM210.17,53.27c1.22.42,2.54-.23,2.97-1.44.42-1.22-.23-2.54-1.44-2.97s-2.54.23-2.97,1.44c-.42,1.22.23,2.54,1.44,2.97ZM170.39,51.96c1.22.42,2.54-.23,2.97-1.44.42-1.22-.23-2.54-1.44-2.97s-2.54.23-2.97,1.44c-.42,1.22.23,2.54,1.44,2.97ZM83.75,41.33c1.28.1,2.4-.86,2.5-2.15s-.86-2.4-2.15-2.5-2.4.86-2.5,2.15c-.1,1.28.86,2.4,2.15,2.5ZM91.04,51.97c1.28.1,2.4-.86,2.5-2.15.1-1.28-.86-2.4-2.15-2.5s-2.4.86-2.5,2.15.86,2.4,2.15,2.5ZM91.04,46.21c1.28.1,2.4-.86,2.5-2.15.1-1.28-.86-2.4-2.15-2.5s-2.4.86-2.5,2.15.86,2.4,2.15,2.5ZM25.46,41.18c1.28.1,2.4-.86,2.5-2.15.1-1.28-.86-2.4-2.15-2.5s-2.4.86-2.5,2.15c-.1,1.28.86,2.4,2.15,2.5ZM.11,13.12c0,1.29,1.04,2.33,2.33,2.33s2.33-1.04,2.33-2.33-1.04-2.33-2.33-2.33S.11,11.83.11,13.12ZM.11,2.73c0,1.29,1.04,2.33,2.33,2.33s2.33-1.04,2.33-2.33S3.73.4,2.45.4.11,1.44.11,2.73ZM8.49,2.73c0,1.29,1.04,2.33,2.33,2.33s2.33-1.04,2.33-2.33S12.11.4,10.83.4s-2.33,1.04-2.33,2.33ZM21.76,2.73c0,1.29,1.04,2.33,2.33,2.33s2.33-1.04,2.33-2.33-1.04-2.33-2.33-2.33-2.33,1.04-2.33,2.33ZM21.76,8.42c0,1.29,1.04,2.33,2.33,2.33s2.33-1.04,2.33-2.33-1.04-2.33-2.33-2.33-2.33,1.04-2.33,2.33ZM35.02,2.73c0,1.29,1.04,2.33,2.33,2.33s2.33-1.04,2.33-2.33-1.04-2.33-2.33-2.33-2.33,1.04-2.33,2.33ZM35.02,8.42c0,1.29,1.04,2.33,2.33,2.33s2.33-1.04,2.33-2.33-1.04-2.33-2.33-2.33-2.33,1.04-2.33,2.33ZM40.63,8.42c0,1.29,1.04,2.33,2.33,2.33s2.33-1.04,2.33-2.33-1.04-2.33-2.33-2.33-2.33,1.04-2.33,2.33ZM47.92,8.24c-.1,1.28.86,2.4,2.15,2.5s2.4-.86,2.5-2.15-.86-2.4-2.15-2.5-2.4.86-2.5,2.15ZM53.09,2.19c-.1,1.28.86,2.4,2.15,2.5s2.4-.86,2.5-2.15c.1-1.28-.86-2.4-2.15-2.5s-2.4.86-2.5,2.15ZM61.47,2.19c-.1,1.28.86,2.4,2.15,2.5s2.4-.86,2.5-2.15c.1-1.28-.86-2.4-2.15-2.5s-2.4.86-2.5,2.15ZM66.28,7.22c-.1,1.28.86,2.4,2.15,2.5s2.4-.86,2.5-2.15c.1-1.28-.86-2.4-2.15-2.5-1.28-.1-2.4.86-2.5,2.15ZM74.74,12.9c-.1,1.28.86,2.4,2.15,2.5,1.28.1,2.4-.86,2.5-2.15.1-1.28-.86-2.4-2.15-2.5s-2.4.86-2.5,2.15ZM79.91,7.87c-.1,1.28.86,2.4,2.15,2.5s2.4-.86,2.5-2.15c.1-1.28-.86-2.4-2.15-2.5s-2.4.86-2.5,2.15ZM74.52,2.48c-.1,1.28.86,2.4,2.15,2.5,1.28.1,2.4-.86,2.5-2.15s-.86-2.4-2.15-2.5c-1.28-.1-2.4.86-2.5,2.15ZM80.27,2.48c-.1,1.28.86,2.4,2.15,2.5,1.28.1,2.4-.86,2.5-2.15s-.86-2.4-2.15-2.5c-1.28-.1-2.4.86-2.5,2.15ZM87.27,2.48c-.1,1.28.86,2.4,2.15,2.5,1.28.1,2.4-.86,2.5-2.15.1-1.28-.86-2.4-2.15-2.5-1.28-.1-2.4.86-2.5,2.15ZM93.03,2.48c-.1,1.28.86,2.4,2.15,2.5,1.28.1,2.4-.86,2.5-2.15s-.86-2.4-2.15-2.5c-1.28-.1-2.4.86-2.5,2.15ZM93.03,7.58c-.1,1.28.86,2.4,2.15,2.5s2.4-.86,2.5-2.15-.86-2.4-2.15-2.5-2.4.86-2.5,2.15ZM100.82,12.54c-.1,1.28.86,2.4,2.15,2.5s2.4-.86,2.5-2.15c.1-1.28-.86-2.4-2.15-2.5s-2.4.86-2.5,2.15ZM106.29,7.51c-.1,1.28.86,2.4,2.15,2.5,1.28.1,2.4-.86,2.5-2.15.1-1.28-.86-2.4-2.15-2.5-1.28-.1-2.4.86-2.5,2.15ZM101.26,2.41c-.1,1.28.86,2.4,2.15,2.5s2.4-.86,2.5-2.15-.86-2.4-2.15-2.5-2.4.86-2.5,2.15ZM132.01,2.26c-.1,1.28.86,2.4,2.15,2.5,1.28.1,2.4-.86,2.5-2.15.1-1.28-.86-2.4-2.15-2.5-1.28-.1-2.4.86-2.5,2.15ZM132.01,13.41c-.1,1.28.86,2.4,2.15,2.5s2.4-.86,2.5-2.15-.86-2.4-2.15-2.5-2.4.86-2.5,2.15ZM140.94,2.15c-.1,1.28.86,2.4,2.15,2.5,1.28.1,2.4-.86,2.5-2.15.1-1.28-.86-2.4-2.15-2.5s-2.4.86-2.5,2.15ZM166.88,2.95c-.1,1.28.86,2.4,2.15,2.5,1.28.1,2.4-.86,2.5-2.15s-.86-2.4-2.15-2.5-2.4.86-2.5,2.15ZM171.61,8.06c-.1,1.28.86,2.4,2.15,2.5s2.4-.86,2.5-2.15c.1-1.28-.86-2.4-2.15-2.5s-2.4.86-2.5,2.15ZM180.43,12.72c-.1,1.28.86,2.4,2.15,2.5s2.4-.86,2.5-2.15c.1-1.28-.86-2.4-2.15-2.5s-2.4.86-2.5,2.15ZM184.8,7.98c-.1,1.28.86,2.4,2.15,2.5,1.28.1,2.4-.86,2.5-2.15s-.86-2.4-2.15-2.5c-1.28-.1-2.4.86-2.5,2.15ZM189.45,2.95c.1-1.28-.86-2.4-2.15-2.5s-2.4.86-2.5,2.15c-.1,1.28.86,2.4,2.15,2.5s2.4-.86,2.5-2.15ZM184.42,2.95c.1-1.28-.86-2.4-2.15-2.5s-2.4.86-2.5,2.15.86,2.4,2.15,2.5,2.4-.86,2.5-2.15ZM203.22,2.95c.1-1.28-.86-2.4-2.15-2.5s-2.4.86-2.5,2.15.86,2.4,2.15,2.5,2.4-.86,2.5-2.15ZM216.34,2.95c.1-1.28-.86-2.4-2.15-2.5s-2.4.86-2.5,2.15.86,2.4,2.15,2.5,2.4-.86,2.5-2.15ZM224.28,2.95c.1-1.28-.86-2.4-2.15-2.5s-2.4.86-2.5,2.15c-.1,1.28.86,2.4,2.15,2.5s2.4-.86,2.5-2.15ZM229.26,1.25c-.84-.98-2.31-1.09-3.29-.25s-1.09,2.31-.25,3.29c.84.98,2.31,1.09,3.29.25s1.09-2.31.25-3.29ZM237.98,2.95c.1-1.28-.86-2.4-2.15-2.5s-2.4.86-2.5,2.15.86,2.4,2.15,2.5,2.4-.86,2.5-2.15ZM263.15,6.28c-.84-.98-2.31-1.09-3.29-.25s-1.09,2.31-.25,3.29c.84.98,2.31,1.09,3.29.25s1.09-2.31.25-3.29ZM250.32,6.79c-.84-.98-2.31-1.09-3.29-.25s-1.09,2.31-.25,3.29,2.31,1.09,3.29.25,1.09-2.31.25-3.29ZM242.31,6.21c-.84-.98-2.31-1.09-3.29-.25s-1.09,2.31-.25,3.29,2.31,1.09,3.29.25c.98-.84,1.09-2.31.25-3.29ZM237.5,11.16c-.84-.98-2.31-1.09-3.29-.25s-1.09,2.31-.25,3.29c.84.98,2.31,1.09,3.29.25.98-.84,1.09-2.31.25-3.29ZM228.83,6.64c-.84-.98-2.31-1.09-3.29-.25s-1.09,2.31-.25,3.29,2.31,1.09,3.29.25,1.09-2.31.25-3.29ZM250.32,12.04c-.84-.98-2.31-1.09-3.29-.25s-1.09,2.31-.25,3.29,2.31,1.09,3.29.25c.98-.84,1.09-2.31.25-3.29ZM255.13,1.98c-.84-.98-2.31-1.09-3.29-.25-.98.84-1.09,2.31-.25,3.29.84.98,2.31,1.09,3.29.25s1.09-2.31.25-3.29ZM203.22,8.19c.1-1.28-.86-2.4-2.15-2.5-1.28-.1-2.4.86-2.5,2.15s.86,2.4,2.15,2.5c1.28.1,2.4-.86,2.5-2.15ZM210.65,8.19c.1-1.28-.86-2.4-2.15-2.5-1.28-.1-2.4.86-2.5,2.15s.86,2.4,2.15,2.5c1.28.1,2.4-.86,2.5-2.15ZM197.83,8.19c.1-1.28-.86-2.4-2.15-2.5-1.28-.1-2.4.86-2.5,2.15s.86,2.4,2.15,2.5c1.28.1,2.4-.86,2.5-2.15ZM197.83,13.59c.1-1.28-.86-2.4-2.15-2.5s-2.4.86-2.5,2.15.86,2.4,2.15,2.5c1.28.1,2.4-.86,2.5-2.15ZM148.66,9.72c1.22-.41,1.88-1.73,1.48-2.95s-1.73-1.88-2.95-1.48-1.88,1.73-1.48,2.95c.41,1.22,1.73,1.88,2.95,1.48ZM126.76,13.41c-.1,1.28.86,2.4,2.15,2.5s2.4-.86,2.5-2.15c.1-1.28-.86-2.4-2.15-2.5s-2.4.86-2.5,2.15ZM132.01,7.73c-.1,1.28.86,2.4,2.15,2.5s2.4-.86,2.5-2.15-.86-2.4-2.15-2.5c-1.28-.1-2.4.86-2.5,2.15ZM35.02,13.81c0,1.29,1.04,2.33,2.33,2.33s2.33-1.04,2.33-2.33-1.04-2.33-2.33-2.33-2.33,1.04-2.33,2.33Z"/>
      <g>
        <path class="cls-2" d="M45.45,134.12h26.25v8.45h-16.62v15.64h13.21v8.45h-13.21v18.17h16.62v8.45h-26.25v-59.17Z"/>
        <path class="cls-2" d="M77.21,134.12h12.08l9.36,35.41h.18v-35.41h8.58v59.17h-9.89l-11.55-43.19h-.17v43.19h-8.58v-59.17Z"/>
        <path class="cls-2" d="M122.09,142.58h-10.06v-8.45h29.75v8.45h-10.06v50.71h-9.62v-50.71Z"/>
        <path class="cls-2" d="M146.42,134.12h9.63v59.17h-9.63v-59.17Z"/>
        <path class="cls-2" d="M163.21,134.12h14.7c9.63,0,14.35,5.16,14.35,14.62v29.92c0,9.47-4.72,14.62-14.35,14.62h-14.7v-59.17ZM177.74,184.84c3.06,0,4.9-1.52,4.9-5.75v-30.77c0-4.23-1.84-5.75-4.9-5.75h-4.9v42.26h4.9Z"/>
        <path class="cls-2" d="M198.04,179.26v-31.1c0-9.47,5.16-14.88,14.61-14.88s14.61,5.41,14.61,14.88v31.1c0,9.47-5.16,14.88-14.61,14.88s-14.61-5.41-14.61-14.88ZM217.64,179.85v-32.29c0-4.23-1.92-5.83-4.99-5.83s-4.99,1.61-4.99,5.83v32.29c0,4.23,1.93,5.83,4.99,5.83s4.99-1.61,4.99-5.83Z"/>
        <path class="cls-2" d="M232.07,179.26v-3.38h9.1v4.06c0,4.22,1.93,5.75,4.99,5.75s4.99-1.52,4.99-5.92c0-4.9-1.93-8.03-8.23-13.35-8.05-6.85-10.67-11.66-10.67-18.42,0-9.3,4.99-14.71,14.35-14.71s14,5.41,14,14.88v2.45h-9.1v-3.04c0-4.23-1.75-5.83-4.81-5.83s-4.81,1.61-4.81,5.66c0,4.31,2.01,7.44,8.31,12.76,8.05,6.85,10.59,11.58,10.59,18.93,0,9.64-5.07,15.05-14.52,15.05s-14.17-5.41-14.17-14.88Z"/>
        <path class="cls-1" d="M3.05,179.47v-4.65h11.08v5.32c0,4.22,2.34,5.75,6.07,5.75s6.07-1.52,6.07-5.75v-13.27c0-4.22-2.34-5.83-6.07-5.83s-6.07,1.61-6.07,5.83v.51H3.05l2.13-33.05h30.89v8.45H15.62l-.96,14.11h.21c2.13-2.79,5.43-4.31,10.12-4.31,8.63,0,13,4.82,13,13.52v13.35c0,9.47-5.96,14.88-17.47,14.88s-17.47-5.41-17.47-14.88Z"/>
      </g>
    </g>
  </g>
</svg>